<?xml version="1.0"?>
<svg xmlns="http://www.w3.org/2000/svg" height="512px" viewBox="0 -52 480 480" width="512px" class=""><g><path d="m472 312h-16v-272c-.027344-22.082031-17.917969-39.9726562-40-40h-352c-22.082031.0273438-39.972656 17.917969-40 40v272h-16c-4.417969 0-8 3.582031-8 8v32c0 13.253906 10.746094 24 24 24h432c13.253906 0 24-10.746094 24-24v-32c0-4.417969-3.582031-8-8-8zm-432-272c0-13.253906 10.746094-24 24-24h352c13.253906 0 24 10.746094 24 24v272h-400zm168 288h64v8h-64zm256 24c0 4.417969-3.582031 8-8 8h-432c-4.417969 0-8-3.582031-8-8v-24h176v8c0 8.835938 7.164062 16 16 16h64c8.835938 0 16-7.164062 16-16v-8h176zm0 0" data-original="#000000" class="active-path" data-old_color="#000000" fill="#602E75"/><path d="m56 280h368v16h-368zm0 0" data-original="#000000" class="active-path" data-old_color="#000000" fill="#602E75"/><path d="m144 128c.046875 1.410156.1875 2.816406.425781 4.207031-11.578125 6.40625-17.988281 19.300781-16.101562 32.394531 1.882812 13.097657 11.667969 23.660157 24.578125 26.542969 1.996094 8.773438 7.625 16.292969 15.480468 20.679688 2 16.785156 16.738282 29.101562 33.613282 28.085937 16.871094-1.011718 30.03125-15.007812 30.003906-31.910156v-104c.035156-16.28125-12.183594-29.988281-28.363281-31.816406-16.179688-1.828125-31.144531 8.800781-34.75 24.679687-14.535157 3.3125-24.855469 16.226563-24.886719 31.136719zm56-40c8.835938 0 16 7.164062 16 16v104c0 7.242188-4.863281 13.582031-11.859375 15.457031-6.992187 1.875-14.375-1.183593-17.996094-7.453125-3.621093-6.273437-2.578125-14.195312 2.542969-19.316406l-11.3125-11.3125c-2.40625 2.464844-4.398438 5.300781-5.894531 8.402344-4.859375-6.023438-4.601563-14.6875.609375-20.410156l-11.859375-10.734376c-3.082031 3.457032-5.367188 7.554688-6.6875 12-5.222657-2.28125-8.828125-7.183593-9.445313-12.847656-.621094-5.664062 1.839844-11.230468 6.445313-14.585937 6 8.035156 15.429687 12.78125 25.457031 12.800781v-16c-8.835938 0-16-7.164062-16-16s7.164062-16 16-16 16 7.164062 16 16h16c-.058594-13.992188-9.21875-26.3125-22.601562-30.398438 2.535156-5.8125 8.261718-9.574218 14.601562-9.601562zm0 0" data-original="#000000" class="active-path" data-old_color="#000000" fill="#602E75"/><path d="m280 240c16.144531-.050781 29.714844-12.140625 31.617188-28.175781 7.859374-4.386719 13.484374-11.902344 15.480468-20.679688 12.910156-2.882812 22.695313-13.445312 24.578125-26.542969 1.886719-13.09375-4.523437-25.988281-16.101562-32.394531 2.820312-16.472656-8.050781-32.179687-24.460938-35.34375-3.605469-15.878906-18.570312-26.507812-34.75-24.679687-16.179687 1.828125-28.398437 15.535156-28.363281 31.816406v104c0 17.671875 14.328125 32 32 32zm-16-136c.066406-7.519531 5.363281-13.976562 12.722656-15.515625 7.363282-1.542969 14.800782 2.253906 17.878906 9.117187-13.382812 4.085938-22.542968 16.40625-22.601562 30.398438h16c0-8.835938 7.164062-16 16-16s16 7.164062 16 16-7.164062 16-16 16v16c10.027344-.019531 19.460938-4.761719 25.457031-12.800781 4.605469 3.355469 7.066407 8.921875 6.445313 14.585937-.617188 5.664063-4.222656 10.566406-9.445313 12.847656-1.320312-4.441406-3.597656-8.535156-6.671875-12l-11.882812 10.734376c5.222656 5.71875 5.484375 14.386718.617187 20.410156-1.496093-3.101563-3.488281-5.9375-5.894531-8.402344l-11.3125 11.3125c5.121094 5.121094 6.164062 13.042969 2.542969 19.316406-3.621094 6.269532-11.003907 9.328125-17.996094 7.453125-6.996094-1.875-11.859375-8.214843-11.859375-15.457031zm0 0" data-original="#000000" class="active-path" data-old_color="#000000" fill="#602E75"/><path d="m80 80c13.253906 0 24-10.746094 24-24s-10.746094-24-24-24-24 10.746094-24 24 10.746094 24 24 24zm0-32c4.417969 0 8 3.582031 8 8s-3.582031 8-8 8-8-3.582031-8-8 3.582031-8 8-8zm0 0" data-original="#000000" class="active-path" data-old_color="#000000" fill="#602E75"/><path d="m154.34375 85.65625 11.3125-11.3125-24-24c-1.5-1.5-3.535156-2.34375-5.65625-2.34375h-16v16h12.6875zm0 0" data-original="#000000" class="active-path" data-old_color="#000000" fill="#602E75"/><path d="m140.6875 232h-36.6875v16h40c2.121094 0 4.15625-.84375 5.65625-2.34375l16-16-11.3125-11.3125zm0 0" data-original="#000000" class="active-path" data-old_color="#000000" fill="#602E75"/><path d="m56 232h32v16h-32zm0 0" data-original="#000000" class="active-path" data-old_color="#000000" fill="#602E75"/><path d="m56 208h32v16h-32zm0 0" data-original="#000000" class="active-path" data-old_color="#000000" fill="#602E75"/><path d="m416 208h-32c-4.417969 0-8 3.582031-8 8v32c0 4.417969 3.582031 8 8 8h32c4.417969 0 8-3.582031 8-8v-32c0-4.417969-3.582031-8-8-8zm-8 32h-16v-16h16zm0 0" data-original="#000000" class="active-path" data-old_color="#000000" fill="#602E75"/><path d="m333.65625 218.34375-11.3125 11.3125 16 16c1.5 1.5 3.535156 2.34375 5.65625 2.34375h16v-16h-12.6875zm0 0" data-original="#000000" class="active-path" data-old_color="#000000" fill="#602E75"/><path d="m344 88h32v16h-32zm0 0" data-original="#000000" class="active-path" data-old_color="#000000" fill="#602E75"/><path d="m392 88h32v16h-32zm0 0" data-original="#000000" class="active-path" data-old_color="#000000" fill="#602E75"/><path d="m392 112h32v16h-32zm0 0" data-original="#000000" class="active-path" data-old_color="#000000" fill="#602E75"/></g> </svg>
